<svg xmlns="http://www.w3.org/2000/svg" viewBox="0 0 145 62" xmlns:v="https://vecta.io/nano"><linearGradient id="A" gradientUnits="userSpaceOnUse" x1="48.126" y1="12.789" x2="16.507" y2="12.789"><stop offset="0" stop-color="#ffffff"/><stop offset="1" stop-color="#ffffff"/></linearGradient><path d="M14.84 12.79c0 1.1-.82 1.99-1.82 1.99s-1.82-.89-1.82-1.99.82-1.99 1.82-1.99 1.81.89 1.82 1.99z" fill="url(#A)"/><path d="M20.58 12.79c0 1.1-.82 1.99-1.82 1.99s-1.82-.89-1.82-1.99.82-1.99 1.82-1.99c1.01 0 1.82.89 1.82 1.99z" fill="#ffffff"/><path d="M26.33 12.79c0 1.1-.82 1.99-1.82 1.99s-1.82-.89-1.82-1.99.82-1.99 1.82-1.99 1.82.89 1.82 1.99z" fill="#ffffff"/><linearGradient id="B" gradientUnits="userSpaceOnUse" x1="49.023" y1="20.11" x2="4.744" y2="25.996"><stop offset="0" stop-color="#ffffff"/><stop offset="1" stop-color="#ffffff"/></linearGradient><path d="M41.8 28.24c-.71-.51-1.34-1.11-1.88-1.77l-.02.13-.02.09-.01.09c-.34 2.44-2.26 4.36-4.7 4.7-3.88.54-6.31.82-10.23.82h-.76-.02-.04c-4.43.25-6.46 4.79-7.55 8.18-.23-3.24-1.59-7.47-1.59-7.47-2.43-.32-6.92-.25-7.79-4.7l-.26-1.64-.02-.12c-.01-.06-1.06-6.01-.3-12.29l.3-1.68.02-.11.02-.11c.34-2.45 2.28-4.36 4.73-4.7a85.22 85.22 0 0 1 11.73-.82 83.68 83.68 0 0 1 11.73.82c2.45.34 4.38 2.25 4.73 4.7l.02.11.02.11.2 1.13c.59-.68 1.27-1.28 2.04-1.79l2.82-1.85c-1.19-4.12-4.7-7.23-9.04-7.84h0c-4.15-.58-8.33-.87-12.52-.87s-8.36.27-12.51.85h0a11.01 11.01 0 0 0-9.37 9.37l-.33 1.83c-.93 7.35.33 14.12.33 14.12.94 6.67 4.51 8.69 9.37 9.37h0c1.44.51 1.83 10.31 1.83 10.31l3.21.19c2.31.11 4.4-1.38 5.02-3.61.74-2.67 1.86-5.79 3.16-6.02h.82c4.18 0 6.84-.29 10.99-.87h0c3.92-.55 7.16-3.14 8.63-6.67l-2.76-1.99z" fill="#ffffff"/><path d="M39.89 12.46l.02.11.2 1.13c.59-.68 1.27-1.28 2.04-1.79l2.82-1.85a11.06 11.06 0 0 0-2.56-4.48c-.46 1.65-1.27 3.22-2.28 4.41l-.73.78c.23.49.4 1.02.48 1.58l.01.11z" fill="#ffffff"/><linearGradient id="C" gradientUnits="userSpaceOnUse" x1="62.956" y1="17.149" x2="20.086" y2="26.235"><stop offset="0" stop-color="#ffffff"/><stop offset="1" stop-color="#ffffff"/></linearGradient><path d="M54.83 9.81c2.3 0 4.44 1.83 4.44 4.44v9.25c0 2.62-2.15 4.44-4.45 4.44-.87 0-1.77-.26-2.57-.84l-6.72-4.84c-2.52-1.81-2.44-5.59.16-7.3l6.72-4.41c.77-.51 1.61-.74 2.42-.74m0-5.49c-1.92 0-3.8.57-5.43 1.63l-6.72 4.41c-2.73 1.79-4.4 4.81-4.47 8.07s1.47 6.35 4.12 8.26l6.72 4.84c1.7 1.23 3.7 1.88 5.78 1.88 5.48 0 9.93-4.45 9.93-9.92v-9.25c0-5.47-4.46-9.92-9.93-9.92h0z" fill="url(#C)"/><path d="M45.64 40.49c-.72 0-1.33.36-1.72 1l-.02.03-6.19 12.66-6.33-12.67c-.37-.66-.99-1.02-1.73-1.02a1.95 1.95 0 0 0-1.39.56c-.39.37-.59.87-.59 1.43v15.97c0 .54.2 1.03.58 1.4.38.38.86.58 1.4.58.55 0 1.03-.2 1.4-.59.36-.38.56-.86.56-1.39v-8.26l4.23 8.47c.36.75 1 1.17 1.8 1.17.7 0 1.3-.34 1.69-.97l.02-.04 4.3-8.78v8.41c0 .54.2 1.03.58 1.4.38.38.86.58 1.4.58s1.02-.2 1.4-.58.58-.86.58-1.4V42.48c0-.56-.2-1.05-.59-1.43a1.91 1.91 0 0 0-1.38-.56zm15.07 6.31c-1.09-.63-2.35-.94-3.74-.94s-2.65.32-3.75.94c-1.1.63-1.98 1.51-2.61 2.61-.62 1.1-.94 2.38-.94 3.8 0 1.41.32 2.67.94 3.77.63 1.1 1.51 1.98 2.61 2.61 1.1.62 2.36.94 3.75.94 1.41 0 2.67-.32 3.76-.94a6.86 6.86 0 0 0 2.6-2.61c.62-1.1.94-2.37.94-3.77 0-1.42-.32-2.7-.95-3.8-.64-1.11-1.51-1.99-2.61-2.61zm-1.94 9.6c-.52.31-1.11.46-1.8.46s-1.28-.15-1.8-.46a3.31 3.31 0 0 1-1.22-1.27c-.3-.54-.45-1.19-.45-1.93 0-.75.15-1.38.45-1.94a3.27 3.27 0 0 1 1.22-1.28c.52-.31 1.11-.46 1.8-.46s1.27.15 1.8.46a3.27 3.27 0 0 1 1.22 1.28c.31.56.45 1.2.45 1.94 0 .73-.15 1.38-.45 1.93a3.31 3.31 0 0 1-1.22 1.27zm18.55-9.56c-1.05-.65-2.25-.98-3.56-.98-1.09 0-2.11.23-3.02.69-.26.13-.5.27-.73.42v-4.51c0-.55-.19-1.04-.56-1.4-.36-.36-.85-.56-1.4-.56s-1.04.19-1.4.56c-.36.36-.56.85-.56 1.4v10.76c.02 1.37.35 2.63.98 3.73.63 1.11 1.51 1.99 2.62 2.63 1.1.63 2.35.95 3.71.95 1.38 0 2.63-.33 3.74-.97 1.1-.64 1.98-1.53 2.62-2.63.64-1.11.97-2.37.97-3.74s-.31-2.62-.91-3.72c-.63-1.11-1.46-1.99-2.5-2.63zm-2.16 9.55c-.52.32-1.1.47-1.77.47s-1.25-.15-1.77-.47-.93-.74-1.23-1.3c-.31-.57-.46-1.19-.46-1.91 0-.73.15-1.35.45-1.9s.7-.97 1.23-1.29c.52-.32 1.1-.47 1.77-.47s1.25.15 1.77.47a3.44 3.44 0 0 1 1.25 1.29c.31.55.46 1.17.46 1.9 0 .71-.15 1.34-.46 1.9s-.72.99-1.24 1.31zm17.72-9.56c-1.09-.64-2.35-.97-3.73-.97-1.36 0-2.61.33-3.71.97s-1.98 1.52-2.62 2.62-.97 2.37-.97 3.76c0 1.37.3 2.62.9 3.72.6 1.11 1.43 2 2.48 2.64s2.25.97 3.55.97c1.31 0 2.49-.32 3.52-.96.14-.08.27-.17.4-.27.09.22.23.41.4.58.37.37.85.57 1.39.57a1.93 1.93 0 0 0 1.42-.58c.36-.37.54-.85.54-1.38v-5.3c0-1.38-.33-2.64-.97-3.74a7.13 7.13 0 0 0-2.6-2.63zm-3.73 10.03c-.65 0-1.23-.15-1.76-.47a3.47 3.47 0 0 1-1.25-1.3c-.31-.56-.46-1.18-.46-1.89 0-.73.15-1.35.46-1.91a3.47 3.47 0 0 1 1.25-1.3 3.29 3.29 0 0 1 1.76-.47c.68 0 1.26.15 1.77.47a3.52 3.52 0 0 1 1.24 1.3c.31.56.46 1.18.46 1.91 0 .71-.15 1.33-.46 1.89a3.55 3.55 0 0 1-1.24 1.31c-.5.31-1.08.46-1.77.46zm15.6.05h-.63c-.49 0-.86-.15-1.16-.48-.32-.34-.47-.79-.47-1.36v-5.36h1.77c.45 0 .86-.16 1.18-.46.33-.31.5-.72.5-1.17 0-.47-.17-.88-.5-1.2a1.68 1.68 0 0 0-1.18-.46h-1.77v-2.75a1.75 1.75 0 0 0-1.77-1.77c-.5 0-.94.18-1.27.52-.32.33-.48.76-.48 1.25v2.75h-.65a1.68 1.68 0 0 0-1.18.46c-.33.31-.5.73-.5 1.2 0 .46.17.86.5 1.17a1.68 1.68 0 0 0 1.18.46h.65v5.36c0 1.01.22 1.94.67 2.74.45.81 1.06 1.45 1.84 1.92s1.67.71 2.65.71h.49c.49 0 .93-.16 1.27-.46.38-.33.58-.78.58-1.29 0-.48-.16-.9-.46-1.23-.33-.37-.76-.55-1.26-.55zm5.04-10.96c-.64 0-1.05.27-1.28.5s-.5.63-.5 1.28v10.94c0 .64.27 1.05.5 1.28s.63.5 1.28.5c.49 0 .93-.17 1.25-.5.23-.23.5-.63.5-1.28V47.72c0-.64-.27-1.05-.5-1.28-.32-.32-.76-.49-1.25-.49zm15.02.84c-1.1-.63-2.36-.95-3.75-.95s-2.66.32-3.76.95a6.92 6.92 0 0 0-2.63 2.63c-.63 1.11-.95 2.38-.95 3.79 0 1.39.32 2.66.95 3.76a6.92 6.92 0 0 0 2.63 2.63c1.11.63 2.37.95 3.76.95s2.65-.32 3.75-.95 1.98-1.52 2.62-2.62c.64-1.11.97-2.38.97-3.78-.02-1.4-.35-2.67-.98-3.78a6.94 6.94 0 0 0-2.61-2.63zm-3.76 10.4c-.75 0-1.4-.17-1.99-.51a3.6 3.6 0 0 1-1.38-1.41c-.34-.6-.51-1.28-.51-2.07s.17-1.47.51-2.09c.34-.61.79-1.07 1.37-1.41.59-.34 1.24-.51 1.99-.51s1.4.17 1.99.51a3.55 3.55 0 0 1 1.36 1.41c.34.62.5 1.3.5 2.09s-.16 1.47-.5 2.08a3.59 3.59 0 0 1-1.36 1.4c-.57.34-1.23.51-1.98.51zm21.8-8.24c-.59-1.03-1.4-1.82-2.41-2.35-.99-.52-2.12-.79-3.36-.79-1.15 0-2.21.26-3.16.77l-.43.25a1.51 1.51 0 0 0-.29-.38c-.33-.33-.76-.5-1.25-.5-.64 0-1.05.27-1.28.5s-.5.63-.5 1.28v10.96c0 .49.17.93.5 1.25.23.23.63.5 1.28.5.49 0 .93-.17 1.25-.5.33-.33.5-.76.5-1.25v-6.9c0-.48.12-.89.38-1.26.27-.39.64-.7 1.12-.93.49-.24 1.06-.36 1.69-.36.65 0 1.24.13 1.75.38.48.24.85.58 1.13 1.06s.43 1.14.43 1.94v6.06a1.72 1.72 0 0 0 .51 1.24 1.75 1.75 0 0 0 1.26.51 1.72 1.72 0 0 0 1.75-1.75v-6.06c0-1.42-.29-2.66-.87-3.67z" fill="#ffffff"/></svg>